PathFileType	3	(X/Y/Z)	D:\Jess\Healthy\Labelled\HA28\20251211\SRRun01.trc
DataRate	CameraRate	NumFrames	NumMarkers	Units	OrigDataRate	OrigDataStartFrame	OrigNumFrames
250.0	250.0	5	37	mm	250.0	35625	2501
Frame#	Time	C7			T10			CLAV			LSHO			RSHO			LASIS			RASIS			LPSIS			RPSIS			LILCR			RILCR			LGTR			LTHI			LLTHI			LLEP			LMEP			LPSH			LLSH			LDSH			LLMAL			LMMAL			LTOE			L5TH			LHEE			RGTR			RTHI			RLTHI			RLEP			RMEP			RPSH			RLSH			RDSH			RLMAL			RMMAL			RTOE			R5TH			RHEE			
		X1	Y1	Z1	X2	Y2	Z2	X3	Y3	Z3	X4	Y4	Z4	X5	Y5	Z5	X6	Y6	Z6	X7	Y7	Z7	X8	Y8	Z8	X9	Y9	Z9	X10	Y10	Z10	X11	Y11	Z11	X12	Y12	Z12	X13	Y13	Z13	X14	Y14	Z14	X15	Y15	Z15	X16	Y16	Z16	X17	Y17	Z17	X18	Y18	Z18	X19	Y19	Z19	X20	Y20	Z20	X21	Y21	Z21	X22	Y22	Z22	X23	Y23	Z23	X24	Y24	Z24	X25	Y25	Z25	X26	Y26	Z26	X27	Y27	Z27	X28	Y28	Z28	X29	Y29	Z29	X30	Y30	Z30	X31	Y31	Z31	X32	Y32	Z32	X33	Y33	Z33	X34	Y34	Z34	X35	Y35	Z35	X36	Y36	Z36	X37	Y37	Z37	

626	142.496	840.6379191437608	1444.954519978965	-621.7153610795451	889.161797551797	1195.520422179282	-549.4986749546123	768.5282952276087	1375.074221373504	-747.042693905782	681.9265287590583	1435.979779793261	-606.5848717222298	942.5467370067086	1443.47367750313	-747.5707283347218	709.5821527458382	984.9585556144704	-712.5953530395528	926.2518711997926	951.1375850856243	-749.8222787984112	818.8685585620075	1020.105713510177	-567.0254510049052	858.984596288013	1020.124368717098	-576.3003623038728	682.7976242611718	1052.216374429853	-644.0884395713051	950.0482158007655	1027.426227340785	-710.3716966189071	636.8734645670381	899.55380096087	-643.2526174144626	717.2432985592548	792.1629803873817	-788.9597621279961	677.2231008467837	669.4657779629181	-717.7382438939729	692.3354388822049	532.899594354164	-767.369622210453	nan	nan	nan	741.7612292086254	453.8494148113513	-835.11620170265	678.7368006990678	340.3358331652153	-760.5716955109942	741.8308288964724	248.2465977382125	-828.3901448220755	711.9322731321944	137.1606584018945	-789.6037410082376	nan	nan	nan	719.7118774592723	89.3468923367565	-909.9136301327427	696.3545856277423	61.94088008679407	-869.8593656527976	763.8983536061703	113.1604133762878	-712.9771838858105	995.7138563107446	866.2738451211396	-673.272951085409	900.5719542214101	703.0781961255506	-687.7772808212177	953.7718164031108	634.9796825668022	-564.0917245274439	941.1283126546487	519.6062529629245	-491.1417168992953	nan	nan	nan	881.3424679431519	436.6754478109665	-491.2849933577234	953.7316819046438	391.9873047260504	-393.8677245037302	895.1733338062228	270.7848912273082	-374.937919808459	921.9401141055312	214.2738679768082	-282.2845063614415	nan	nan	nan	893.2178395725469	73.67180783492378	-294.0721899100195	925.5537042228246	94.96560209172591	-251.5434382575767	878.4005142276023	267.6237322751281	-225.2256506481119	
627	142.5	840.584299839438	1444.939067466321	-621.921372146894	889.4518083109706	1195.593207701739	-550.0334585142526	767.5254297345259	1375.466854878664	-746.6902048365509	681.977436768727	1435.824593327902	-605.7384455820018	941.5060715455578	1443.684194406646	-748.4174169161556	709.7634118697954	985.4066542851613	-712.9472803923627	925.8574716285481	951.1210966950194	-750.2644900799032	818.9153946213557	1020.833956543446	-567.5682858823541	859.0056388951353	1020.695429944356	-576.8492821540993	682.5754127856759	1052.648615209356	-644.5576836451214	949.5952951933382	1027.485435475178	-710.9179205273143	636.6761580076	900.4190094848926	-643.9477736598802	717.7045357689091	790.5928720106882	-788.7277870932294	676.9888146710074	669.0429251153233	-716.7670932135736	692.3569562736755	532.022320118364	-766.6540274626913	nan	nan	nan	742.5764989075858	453.9830033263909	-835.3254197887317	678.7583001487006	339.0883838689201	-764.3752109256636	742.9716655539173	248.6850273091308	-833.5153269320956	712.8451540829648	136.6239453640293	-797.6318526787952	nan	nan	nan	722.1077910764507	90.81630500066466	-918.6971453161624	698.3824855443361	62.60831164133797	-879.4223954472819	764.000162421684	111.3686039273506	-720.9024684522209	995.4138385633046	866.2732407151026	-673.9095203857828	899.621370935771	703.1709256377876	-687.722018956737	953.3727516252408	635.114708408695	-564.4087459094588	940.8355682050959	519.8076286479061	-491.3022858158164	nan	nan	nan	880.7804610637313	437.0537657311465	-490.0897720315508	954.1238810959707	392.9945668083191	-392.9642041817579	895.407246583423	272.2894469827743	-372.0968522661028	922.9457480200729	216.7250192314592	-279.0514851556697	nan	nan	nan	893.7042946776749	75.78106436971474	-288.4345553635018	926.2822560330152	97.78604991556263	-246.3725428496738	880.0188744760342	271.1314591588171	-222.6378637133777	
628	142.504	840.4996244122534	1444.793987731336	-622.1197965903391	889.6665209437174	1195.536083034982	-550.4792444872323	766.5651485617672	1375.620319003216	-746.3598910702997	681.9740759810564	1435.482593528444	-604.9521890815108	940.5079090689457	1443.683110366057	-749.2365639534154	709.9145444176173	985.6724033852423	-713.2834612313856	925.5039906372432	951.0531283397062	-750.6724732243338	818.9233721874614	1021.336248109476	-568.0447750983209	858.9917258206491	1021.049758510353	-577.3281742361346	682.3271311663261	1052.902881774135	-644.9868874479263	949.1872424264824	1027.437124843753	-711.3460178430772	636.5031146307341	900.96738857787	-644.6616921028398	718.1957151999919	788.6023355513144	-788.4263212177618	676.7182001085378	668.3815011682256	-715.9046038145982	692.3396762176507	531.0894750272131	-766.14679389997	nan	nan	nan	743.4242180513625	453.9961265106732	-835.5187500587385	678.7702830758969	337.9884496486135	-767.9718421683	744.068003996998	249.1146445052756	-838.1684533561794	713.7157225472685	136.2047238538978	-804.9615756333912	nan	nan	nan	724.4049115956947	92.14310737727961	-926.6213217328706	700.3296211869429	63.23885752002668	-888.0749687233306	764.0834899853709	109.8397383923998	-728.1201806906587	995.1248858128208	866.1580600639803	-674.5610899615687	898.7024984626848	703.1859881854078	-687.8811157853714	952.9398415387526	634.9972804497995	-565.0444199308421	940.4999666107275	519.7347075803796	-491.7919288070531	nan	nan	nan	880.2130831035291	437.1705083144537	-489.1382851807425	954.5153177494778	393.8306321465213	-392.2544439358369	895.6460913335234	273.6890230262425	-369.3251906721324	923.9620436790725	219.1520460496344	-275.8471945781098	nan	nan	nan	894.2531755593847	78.0116964989562	-282.9676677544239	927.0957115469057	100.6072107570271	-241.3656745810513	881.6266607027142	274.5278803951915	-220.0156782856775	
629	142.508	840.381137662976	1444.521348426833	-622.3065739433769	889.8096313462009	1195.349699248218	-550.8387214522252	765.6470811931204	1375.538750845162	-746.0502974588221	681.9148456789053	1434.958729943351	-604.2232036550473	939.5533940449914	1443.472911345087	-750.0250084239661	710.0303574209621	985.7586529640068	-713.6034203546554	925.1878847145446	950.9313279275493	-751.0487924036469	818.8907404981243	1021.609486422732	-568.4573792715124	858.9413501391924	1021.185543475993	-577.7415104677018	682.057141181395	1052.982456332246	-645.3693079329323	948.8206447174412	1027.281588582927	-711.6648179638368	636.3537439243415	901.193744182668	-645.3886683307795	718.7138891386778	786.237315929224	-788.0651002912277	676.4227985487926	667.4982403473531	-715.1719713290258	692.2939778447761	530.1149535251811	-765.8650679614781	nan	nan	nan	744.3071147697788	453.8947593968536	-835.7060912701992	678.7708483686769	337.0210810628463	-771.3458600962485	745.1069721285228	249.5012948229035	-842.3360200613067	714.5289932468909	135.8581023353795	-811.5598187328902	nan	nan	nan	726.5815782602814	93.2738461273307	-933.6663235000566	702.1745395577038	63.77835112655943	-895.7871141513542	764.1359389168848	108.5351601027807	-734.5904978371027	994.8451914391424	865.9298842886836	-675.2263190552866	897.8232492447664	703.1170199918663	-688.2545507997374	952.4739433585904	634.6282096757003	-565.9899029343092	940.1254321298225	519.393056419714	-492.5948594838125	nan	nan	nan	879.6495573142806	437.0262821155814	-488.4269024712264	954.9039348979629	394.5071415920573	-391.7263915316025	895.9026318659024	274.9872910905938	-366.632129708139	924.9933787859777	221.5557690931229	-272.6830894966885	nan	nan	nan	894.8848983779508	80.34523031482364	-277.676902166575	928.0039163734477	103.4274973020263	-236.5228724196055	883.2137930298701	277.8202437655782	-217.3799294407393	
630	142.512	840.2264419421359	1444.122325914446	-622.4775525527605	889.8851140487976	1195.034215340769	-551.1153361754918	764.7709104285575	1375.227237941627	-745.7595502948608	681.7988346836955	1434.257569905857	-603.5485748514468	938.6432612078818	1443.056865171798	-750.7789706723703	710.1059850574136	985.6677193752462	-713.9082974536476	924.9052783587052	950.7521455484519	-751.3958220192084	818.8160949066087	1021.651268785326	-568.8095982497422	858.8533389787289	1021.101998915101	-578.0943333992556	681.7698516648331	1052.888884529477	-645.6990841694422	948.4916764394865	1027.018409606583	-711.8837782260885	636.2270280006863	901.0954273226706	-646.1231314904876	719.2574124916516	783.5518093314613	-787.6586919728491	676.1142887433658	666.411222489088	-714.5902217428866	692.2301078264919	529.1087858062276	-765.8201881578697	nan	nan	nan	745.2244211954277	453.6817769138372	-835.8947438425424	678.7569769030498	336.1655384864509	-774.481264458338	746.0760046319181	249.8089190839249	-846.0066044982699	715.2704240843148	135.5384301625814	-817.3976073526663	nan	nan	nan	728.6173147312242	94.15858566836786	-939.8169492020012	703.8966456392354	64.17591597597828	-902.5342987200434	764.1457071684089	107.4145483829556	-740.2784845248007	994.5729161973987	865.5900147163854	-675.9034790900706	896.9908336152727	702.9569583709507	-688.838207404886	951.9779730515619	634.0107973088465	-567.2305880546338	939.7176566949984	518.7900234583279	-493.6932120691388	nan	nan	nan	879.1006861243594	436.6226695579856	-487.9526243832161	955.2878123407347	395.0368622242156	-391.368441350149	896.1901278644967	276.1871665975256	-364.029131201916	926.0440077484952	223.9370216788099	-269.5727603326844	nan	nan	nan	895.6202597820079	82.76113644812659	-272.5666502311174	929.0158458004095	106.2463967746642	-231.8439844009853	884.7691945344537	281.0157563101014	-214.7556317450021	
